<svg xmlns="http://www.w3.org/2000/svg" viewBox="0 0 512 512">
	<g fill="#fff">
		<path d="M452 40h-24V0h-40v40H124V0H84v40H60a60.07 60.07 0 0 0-60 60v352a60.07 60.07 0 0 0 60 60h392a60.07 60.07 0 0 0 60-60V100a60.07 60.07 0 0 0-60-60zm20 412a20 20 0 0 1-20 20H60a20 20 0 0 1-20-20V188h432zm0-304H40v-48a20 20 0 0 1 20-20h24v40h40V80h264v40h40V80h24a20 20 0 0 1 20 20z"/>
		<path d="M76 230h40v40H76zM156 230h40v40h-40zM236 230h40v40h-40zM316 230h40v40h-40zM396 230h40v40h-40zM76 310h40v40H76zM156 310h40v40h-40zM236 310h40v40h-40zM316 310h40v40h-40zM76 390h40v40H76zM156 390h40v40h-40zM236 390h40v40h-40zM316 390h40v40h-40zM396 310h40v40h-40z"/>
	</g>
</svg>