<svg xmlns="http://www.w3.org/2000/svg" viewBox="0 0 453.11 99.93">
    <path class="path1" d="M272.06 60.24h7.8v28.49h-7.8zM300 60.24l-18.44 19.73L300 99.93h9.27l-18.45-19.96 18.45-19.73H300z"
            fill="#00a8a9"/>
    <path class="path1" d="M369.6 83.08a14 14 0 0 0-20.92-9.21V60.25h-6.61v28.41h7.21a7 7 0 0 1-.56-2.75 7.14 7.14 0 1 1 7.14 7.09 7.33 7.33 0 0 1-2.57-.47v7.12a13.73 13.73 0 0 0 5.39 0 14 14 0 0 0 10.92-16.57M401.93 83.08a14 14 0 0 0-27.49 0 14.21 14.21 0 0 0 0 5.57h7.19a6.88 6.88 0 0 1-.56-2.75 7.14 7.14 0 1 1 7.11 7.1 7.27 7.27 0 0 1-2.56-.47v7.12a13.74 13.74 0 0 0 5.39 0 14 14 0 0 0 10.91-16.54M334.33 86.41V71.54h-6.63v14.87a6.66 6.66 0 0 1-6.7 6.65 6.77 6.77 0 0 1-3-.72v7a13.32 13.32 0 0 0 16.36-13zM314.71 88.58a6.79 6.79 0 0 1-.36-2.18V71.54h-6.63v14.87a13.43 13.43 0 0 0 .18 2.18zM422.17 71.54h-6.94v-11.3h-7.37v39.69h7.37V78.91h6.94v-7.37zM452.83 83.08a14 14 0 0 0-27.49 0 14.17 14.17 0 0 0 0 5.57h7.18a7 7 0 0 1-.56-2.75 7.14 7.14 0 1 1 7.12 7.1 7.28 7.28 0 0 1-2.56-.47v7.12a11.68 11.68 0 0 0 5.39-.45 9.34 9.34 0 0 0 4.46-2.76v3.48h6.7V87.05a13.9 13.9 0 0 0-.24-4"
            fill="#00a8a9"/>
    <path d="M263.65.71h25.27v6.38h-16.86v9.78h15.72v6.6h-15.72V40.4h-8.41V.71zM305.16 12c9.92 0 14.21 6.81 14.21 14.57S314.92 41.39 305 41.39c-7.81 0-14-4.89-14-14.62 0-6.7 3.36-14.78 14.16-14.78m.11 23.74c3.52 0 5.91-2.14 5.91-9.51 0-3.68-.7-8.79-6-8.79-5.86 0-5.91 6.87-5.91 9.4 0 6.21 2.06 8.9 6 8.9M324.3 19.46c0-1.32-.22-5.33-.38-6.93h7.54l.16 5.33c1-2.36 2.82-5.72 9.33-5.39v7.31c-8.14-.77-8.62 3.46-8.62 6.93V40.4h-8zM0 .71h25.27v6.38H8.41v9.78h15.72v6.6H8.41V40.4H0V.71zM41.51 12c9.92 0 14.21 6.81 14.21 14.57s-4.45 14.82-14.37 14.82c-7.81 0-14-4.89-14-14.62 0-6.7 3.36-14.78 14.16-14.78m.11 23.74c3.52 0 5.91-2.14 5.91-9.51 0-3.68-.71-8.79-6-8.79-5.86 0-5.91 6.87-5.91 9.4 0 6.21 2.06 8.9 6 8.9M60.65 19.46c0-1.32-.22-5.33-.38-6.93h7.53l.2 5.33c1-2.36 2.82-5.72 9.33-5.39v7.31c-8.14-.77-8.62 3.46-8.62 6.93V40.4h-8zM98.63.71h26.21v6.48h-17.81v9.44h16.68v6.48h-16.68v10.7h18.41v6.59H98.63V.71zM147 40.4a22.44 22.44 0 0 1-.27-3.79c-3 4.45-6.67 4.45-8.19 4.45-4 0-5.75-1.15-6.83-2.2a8.67 8.67 0 0 1-2.39-6.1c0-2.2.76-6.27 5.8-8.63 3.36-1.54 8.19-1.54 10.85-1.54a11 11 0 0 0-.38-3.68 3.7 3.7 0 0 0-3.58-2.31 3.64 3.64 0 0 0-3 1.54 4.23 4.23 0 0 0-.6 2.47h-7.86a7.81 7.81 0 0 1 3.09-6.54 14.17 14.17 0 0 1 8.3-2.25c2.28 0 7 .39 9.76 3.57 1.84 2.25 1.9 5.55 1.9 6.82l.05 11.16a34 34 0 0 0 .65 7zm-9.87-8.57a3.8 3.8 0 0 0 3.9 4 4.52 4.52 0 0 0 3.42-1.59c1.41-1.76 1.52-3.9 1.52-6.87-5.15-.44-8.84 1.21-8.84 4.51M159.68 19.46c0-1.32-.22-5.33-.38-6.93h7.54l.16 5.33c1-2.36 2.82-5.72 9.33-5.39v7.31c-8.13-.77-8.62 3.46-8.62 6.93V40.4h-8zM199.89 40a24.6 24.6 0 0 1-6.24.88c-8.08 0-8.08-5.17-8.08-7.48V18.19h-5.26v-5.38h5.26V7.37l8-3v8.41H200v5.39h-6.51v12.55c.05 2.53.05 4.12 3.63 4.12a19.79 19.79 0 0 0 2.71-.17zM205.12.71h8v15.73a8.81 8.81 0 0 1 7.88-4.18 9.83 9.83 0 0 1 8 3.74c1 1.37 1.79 3.9 1.79 7.53V40.4h-8V23.8c0-1.59 0-6-4.5-6-2.28 0-5.15 1.32-5.15 5.66l.05 17h-8.08zM247.45 31.38L241 44.9h-5.59l4.02-13.52h8.02zM364.53.71h8.58v32.93h16.81v6.76h-25.39V.71zM394.6.71h8.57v7.1h-8.57zm.27 11.88h8V40.4h-8zM412.05 18.41H408v-5.77h4.07V8.85C412.05 4 413.68 0 421.49 0a34.82 34.82 0 0 1 4.34.27v5.67a10.11 10.11 0 0 0-1.68-.16C420 5.77 420 8 420 9.4v3.24h5.1v5.77H420v22h-8zM434.68 28.58c0 1.82 0 7.42 5.59 7.42 2 0 4-.77 4.77-3.85h7.32a9.35 9.35 0 0 1-2.6 6c-2 2.14-5.58 3.24-9.6 3.24-2.33 0-6.78-.44-9.65-3.46C428 35.34 427 31.61 427 27.15s1.08-9.89 5.7-13.14a13.57 13.57 0 0 1 7.7-2.31 11.73 11.73 0 0 1 11.06 6.71 20.87 20.87 0 0 1 1.63 10.17zm10.2-5.11c0-1.26-.11-6.21-4.77-6.21-3.52 0-5 3-5.15 6.21z"
            fill="#000"/>
</svg>